<?xml version="1.0" encoding="iso-8859-1"?>
<!-- Uploaded to: SVG Repo, www.svgrepo.com, Generator: SVG Repo Mixer Tools -->
<svg fill="#626262" height="800px" width="800px" version="1.1" id="Layer_1" xmlns="http://www.w3.org/2000/svg" xmlns:xlink="http://www.w3.org/1999/xlink"
	 viewBox="0 0 475 475" xml:space="preserve">
<g id="XMLID_1008_">
	<g>
		<g>
			<path d="M237.5,215c59.276,0,107.5-48.224,107.5-107.5S296.776,0,237.5,0S130,48.224,130,107.5S178.224,215,237.5,215z M237.5,30
				c42.734,0,77.5,34.766,77.5,77.5S280.234,185,237.5,185S160,150.234,160,107.5S194.766,30,237.5,30z"/>
			<path d="M237.5,245c-102.009,0-185,82.991-185,185v15h170v30h30v-30h170v-15C422.5,327.991,339.509,245,237.5,245z M252.5,415
				v-80h-30v80H83.22c7.093-73.519,65.761-132.187,139.28-139.279V305h30v-29.279c73.519,7.092,132.187,65.76,139.28,139.279H252.5z
				"/>
		</g>
	</g>
</g>
</svg>
