<svg class="brxe-svg" id="brxe-umcudt" width="141" height="51" viewBox="0 0 141 51" fill="none" xmlns="http://www.w3.org/2000/svg">
<path d="M115.84 0H25.09C11.2332 0 0 11.2309 0 25.085C0 38.9391 11.2332 50.17 25.09 50.17H115.84C129.697 50.17 140.93 38.9391 140.93 25.085C140.93 11.2309 129.697 0 115.84 0Z" fill="#E40425"/>
<path d="M24.24 41.67C15.1 41.67 7.66 34.23 7.66 25.09C7.66 15.95 15.1 8.5 24.24 8.5C33.38 8.5 40.82 15.94 40.82 25.08C40.82 34.22 33.38 41.66 24.24 41.66V41.67Z" fill="white"/>
<path d="M56.61 30.95H65.03C65.95 30.95 66.41 31.41 66.41 32.33V36.92C66.41 37.84 65.95 38.3 65.03 38.3H49.64C48.72 38.3 48.26 37.84 48.26 36.92V12.58C48.26 11.66 48.72 11.2 49.64 11.2H55.23C56.15 11.2 56.61 11.66 56.61 12.58V30.95Z" fill="white"/>
<path d="M78.23 12.58C78.23 11.66 77.77 11.2 76.85 11.2H66.02C65.1 11.2 64.64 11.66 64.64 12.58V18.17C64.64 19.09 65.1 19.55 66.02 19.55H69.85V36.93C69.85 37.85 70.31 38.31 71.23 38.31H76.82C77.74 38.31 78.2 37.85 78.2 36.93V18.6C78.23 18.47 78.24 18.33 78.24 18.17V12.58H78.23Z" fill="white"/>
<path d="M90.25 38.3C89.43 38.3 88.88 37.89 88.6 37.08L80.91 12.85C80.76 12.37 80.78 11.97 80.97 11.66C81.16 11.35 81.49 11.2 81.95 11.2H87.84C88.76 11.2 89.32 11.62 89.52 12.46L92.31 23.56L93.57 29.68H93.72L94.98 23.56L97.77 12.46C97.97 11.62 98.54 11.2 99.45 11.2H105.34C105.8 11.2 106.12 11.35 106.32 11.66C106.51 11.97 106.53 12.36 106.38 12.85L98.69 37.08C98.41 37.9 97.86 38.3 97.04 38.3H90.23H90.25Z" fill="white"/>
<path d="M117.16 27.85V31.41H126.58C127.5 31.41 127.96 31.87 127.96 32.79V36.92C127.96 37.84 127.5 38.3 126.58 38.3H110.35C109.43 38.3 108.97 37.84 108.97 36.92V12.58C108.97 11.66 109.43 11.2 110.35 11.2H126.35C127.27 11.2 127.73 11.66 127.73 12.58V16.71C127.73 17.63 127.27 18.09 126.35 18.09H117.16V21.27H125.77C126.66 21.27 127.11 21.73 127.11 22.65V26.52C127.11 27.41 126.66 27.86 125.77 27.86H117.16V27.85Z" fill="white"/>
</svg>